<?xml version="1.0" encoding="utf-8"?>
<!-- Generator: Adobe Illustrator 25.0.0, SVG Export Plug-In . SVG Version: 6.00 Build 0)  -->
<svg version="1.1" id="图层_1" xmlns="http://www.w3.org/2000/svg" xmlns:xlink="http://www.w3.org/1999/xlink" x="0px" y="0px"
	 viewBox="0 0 1088 688" style="enable-background:new 0 0 1088 688;" xml:space="preserve">
<style type="text/css">
	.st0{fill:#3F3D56;}
	.st1{fill:#F2F2F2;}
	.st2{opacity:0.1;enable-background:new    ;}
	.st3{fill:#FF6584;}
	.st4{fill:#2F2E41;}
	.st5{fill:#6C63FF;}
	.st6{fill:#A8A8A8;}
	.st7{opacity:0.2;enable-background:new    ;}
</style>
<g id="Group_12" transform="translate(-57 -56)">
	<g id="Group_11" transform="translate(57 56)">
		<path id="Path_83" class="st0" d="M961.5,455.4c-5.3,45.2-16.2,81.4-31.2,110.3c-20,38.5-54.2,54-84.8,70.3
			c-8.8,4.7-18,8.7-27.5,11.9c-55.6,19.3-117.8,14.2-166.7,4c-34.3-7.2-69.1-11.6-104.1-13.2c-10-0.4-20-0.7-30-0.7
			c-15.4,0-293.1,5.3-360.7-131.6c-16.7-33.8-28.1-75-32.2-125.3c-11.6-141.9,52.3-235.3,134.8-296.3
			c156-115.4,369.8-110.6,523.4,7.9C884.9,171.6,980.7,291,961.5,455.4z"/>
		<path id="Path_84" class="st1" d="M930.3,565.8c-20,38.5-47.2,64-77.8,80.3c-8.8,4.7-18,8.7-27.5,11.9
			c-55.6,19.3-117.8,14.2-166.7,4c-34.3-7.2-69.1-11.6-104.1-13.2c-10-0.4-20-0.7-30-0.7c-15.4,0-30.8,0.6-46.2,1.7
			c-100.2,7.4-253.8-6.4-321.4-143.3L325.7,179l63,161.6l20.1,51.6l55.4-76l28.5-39.2l130.2,149.3l36.8-81.3l254.8,207.9l14.2,11.6
			L930.3,565.8z"/>
		<path id="Path_85" class="st2" d="M301.7,284l26-57l36,83l-31-60L301.7,284z"/>
		<path id="Path_86" class="st2" d="M554.2,648.8c-10-0.4-20-0.7-30-0.7L408.7,392.2L554.2,648.8z"/>
		<path id="Path_87" class="st2" d="M464.1,316.2l28.6-22.2l130,150l-132-128L464.1,316.2z"/>
		<path id="Path_88" class="st2" d="M852.5,646c-8.8,4.7-18,8.7-27.5,11.9L622.9,426.2L852.5,646z"/>
		<circle id="Ellipse_11" class="st1" cx="481.7" cy="103" r="3"/>
		<circle id="Ellipse_12" class="st1" cx="398.7" cy="206" r="3"/>
		<circle id="Ellipse_13" class="st1" cx="601.7" cy="224" r="2"/>
		<circle id="Ellipse_14" class="st1" cx="181.7" cy="269" r="2"/>
		<circle id="Ellipse_15" class="st1" cx="613.7" cy="100" r="2"/>
		<circle id="Ellipse_16" class="st1" cx="737.7" cy="196" r="2"/>
		<circle id="Ellipse_17" class="st1" cx="859.7" cy="348" r="2"/>
		<path id="Path_89" class="st1" d="M305.7,122.2h-2.8v-2.8h-1.5v2.8h-2.7v1.5h2.8v2.8h1.5v-2.8h2.8L305.7,122.2L305.7,122.2z"/>
		<path id="Path_90" class="st1" d="M847.7,425.2h-2.8v-2.8h-1.5v2.8h-2.7v1.5h2.8v2.8h1.5v-2.8h2.8L847.7,425.2L847.7,425.2z"/>
		<path id="Path_91" class="st0" d="M1087.7,615c0,16.6-243.6,74-544,74s-544-57.5-544-74s243.6,14,544,14S1087.7,598.4,1087.7,615z
			"/>
		<path id="Path_92" class="st2" d="M1087.7,615c0,16.6-243.6,74-544,74s-544-57.5-544-74s243.6,14,544,14S1087.7,598.4,1087.7,615z
			"/>
		<ellipse id="Ellipse_18" class="st0" cx="543.7" cy="615" rx="544" ry="30"/>
		<path id="Path_93" class="st3" d="M567.7,573c0,33.1-14.8,24-33,24s-33,9.1-33-24s33-96,33-96S567.7,539.8,567.7,573z"/>
		<path id="Path_94" class="st2" d="M549.7,585.6c0,15.1-6.7,10.9-15,10.9s-15,4.2-15-10.9s15-43.6,15-43.6S549.7,570.6,549.7,585.6
			z"/>
		<path id="Rectangle_97" class="st4" d="M497.7,606h74c5,0,9,4,9,9l0,0c0,5-4,9-9,9h-74c-5,0-9-4-9-9l0,0
			C488.7,610,492.7,606,497.7,606z"/>
		<path id="Rectangle_98" class="st4" d="M497.7,588h74c5,0,9,4,9,9l0,0c0,5-4,9-9,9h-74c-5,0-9-4-9-9l0,0
			C488.7,592,492.7,588,497.7,588z"/>
		<path id="Path_95" class="st0" d="M136.7,491.5c0,55.3,34.7,100.1,77.6,100.1"/>
		<path id="Path_96" class="st5" d="M214.3,591.7c0-56,38.7-101.3,86.6-101.3"/>
		<path id="Path_97" class="st5" d="M164.8,496.5c0,52.6,22.1,95.1,49.5,95.1"/>
		<path id="Path_98" class="st0" d="M214.3,591.7c0-71.5,44.8-129.4,100.1-129.4"/>
		<path id="Path_99" class="st6" d="M198,592.4c0,0,11-0.3,14.3-2.7s16.9-5.2,17.8-1.4s16.5,18.8,4.1,18.9s-28.9-1.9-32.2-4
			S198,592.4,198,592.4z"/>
		<path id="Path_100" class="st7" d="M234.4,605.9c-12.4,0.1-28.9-1.9-32.2-4c-2.5-1.5-3.5-7-3.9-9.6h-0.4c0,0,0.7,8.9,4,10.9
			s19.8,4.1,32.2,4c3.6,0,4.8-1.3,4.8-3.2C238.5,605.2,237.1,605.9,234.4,605.9z"/>
		<path id="Path_101" class="st0" d="M721.1,528.1c0,38,23.9,68.8,53.3,68.8"/>
		<path id="Path_102" class="st5" d="M774.5,596.9c0-38.5,26.6-69.6,59.5-69.6"/>
		<path id="Path_103" class="st5" d="M740.5,531.5c0,36.1,15.2,65.4,34,65.4"/>
		<path id="Path_104" class="st0" d="M774.5,596.9c0-49.1,30.8-88.9,68.8-88.9"/>
		<path id="Path_105" class="st6" d="M763.2,597.3c0,0,7.6-0.2,9.8-1.9s11.6-3.6,12.2-1s11.4,12.9,2.8,13s-19.8-1.3-22.1-2.7
			S763.2,597.3,763.2,597.3z"/>
		<path id="Path_106" class="st7" d="M788.3,606.6c-8.5,0.1-19.8-1.3-22.1-2.7c-1.7-1.1-2.4-4.8-2.7-6.6h-0.3c0,0,0.5,6.1,2.8,7.5
			s13.6,2.8,22.1,2.7c2.5,0,3.3-0.9,3.3-2.2C791,606.1,790.1,606.6,788.3,606.6z"/>
		<path id="Path_107" class="st6" d="M893.5,619.7c0,0,11.4-1.7,14.5-4.6s16.9-7.5,18.2-3.7s19.5,17.4,6.6,19.1s-30.2,1.6-33.8-0.1
			S893.5,619.7,893.5,619.7z"/>
		<path id="Path_108" class="st7" d="M932.9,629.2c-12.9,1.7-30.2,1.6-33.8-0.1c-2.8-1.3-4.5-6.9-5.2-9.5l-0.4,0.1
			c0,0,1.8,9.1,5.5,10.8s21,1.7,33.8,0.1c3.7-0.5,4.8-2,4.5-3.9C937,627.9,935.7,628.8,932.9,629.2z"/>
		<path id="Path_110" class="st7" d="M647.2,626.9c-10.9,1.4-25.4,1.4-28.6-0.1c-2.4-1.1-3.8-5.8-4.4-8l-0.3,0.1
			c0,0,1.5,7.7,4.7,9.1s17.7,1.5,28.6,0.1c3.1-0.4,4.1-1.7,3.8-3.3C650.7,625.8,649.6,626.6,647.2,626.9z"/>
		<path id="Path_111" class="st6" d="M122.1,614.1c0,0,7.5-1.1,9.5-3s11.1-4.9,12-2.4s12.8,11.5,4.4,12.6s-19.8,1.1-22.2,0
			S122.1,614.1,122.1,614.1z"/>
		<path id="Path_112" class="st7" d="M148,620.3c-8.4,1.1-19.8,1.1-22.2,0c-1.8-0.8-3-4.5-3.4-6.2h-0.2c0,0,1.2,6,3.6,7.1
			c2.4,1.1,13.8,1.1,22.2,0c2.4-0.3,3.2-1.3,3-2.6C150.7,619.5,149.8,620.1,148,620.3z"/>
		<path id="Path_113" class="st2" d="M383.4,602.3c0,30.2-42.1,20.9-93.7,20.9s-93.1,9.3-93.1-20.9s42.1-36.8,93.7-36.8
			S383.4,572.1,383.4,602.3z"/>
		<path id="Path_114" class="st0" d="M383.4,594.9c0,30.2-42.1,20.9-93.7,20.9s-93.1,9.3-93.1-20.9s42.1-36.8,93.7-36.8
			S383.4,564.7,383.4,594.9z"/>
	</g>
</g>
</svg>
